<?xml version="1.0" encoding="UTF-8"?>
<svg width="24px" height="23px" viewBox="0 0 24 23" version="1.1" xmlns="http://www.w3.org/2000/svg" xmlns:xlink="http://www.w3.org/1999/xlink">
    <title>14-document/208-document-check</title>
    <defs>
        <path d="M24,14.5 C24,10.316 20.975,6.847 16.994,6.139 L17,6.048 L17,1 C17,0.448 16.553,0 16,0 L1,0 C0.448,0 0,0.448 0,1 L0,22 C0,22.553 0.448,23 1,23 L16,23 L16.002,22.975 C20.461,22.714 24,19.025 24,14.5 L24,14.5 Z M15.5,22 C11.358,22 8,18.643 8,14.5 C8,10.358 11.358,7 15.5,7 C19.643,7 23,10.358 23,14.5 C23,18.643 19.643,22 15.5,22 L15.5,22 Z M1,22 L1,1 L16,1 L16,6.025 C15.834,6.016 15.669,6 15.5,6 C10.806,6 7,9.806 7,14.5 C7,17.749 8.824,20.569 11.502,22 L1,22 Z M9,8.5 C9,8.224 8.825,8 8.609,8 L3.391,8 C3.175,8 3,8.224 3,8.5 C3,8.776 3.175,9 3.391,9 L8.609,9 C8.825,9 9,8.776 9,8.5 M3.4546,6 L12.5456,6 C12.7966,6 12.9996,5.776 12.9996,5.5 C12.9996,5.224 12.7966,5 12.5456,5 L3.4546,5 C3.2036,5 2.9996,5.224 2.9996,5.5 C2.9996,5.776 3.2036,6 3.4546,6 M18.5146,11.7925 C16.2166,14.1865 15.0676,15.3845 15.0646,15.3865 C14.8686,15.5825 14.5526,15.5825 14.3576,15.3865 L13.3536,14.3825 C13.1586,14.1875 12.8416,14.1875 12.6466,14.3825 C12.4516,14.5785 12.4516,14.8945 12.6466,15.0895 L13.6506,16.0935 C14.2366,16.6795 15.1866,16.6795 15.7716,16.0935 C15.7836,16.0835 15.7836,16.0835 15.7936,16.0725 L19.2366,12.4845 C19.4266,12.2855 19.4206,11.9695 19.2216,11.7775 C19.0226,11.5865 18.7046,11.5935 18.5146,11.7925" id="path-1"></path>
    </defs>
    <g id="Redlines" stroke="none" stroke-width="1" fill="none" fill-rule="evenodd">
        <g id="Icon-Asset-Sheet" transform="translate(-51.000000, -369.000000)">
            <g id="14-document/208-document-check" transform="translate(51.000000, 369.000000)">
                <mask id="mask-2" fill="white">
                    <use xlink:href="#path-1"></use>
                </mask>
                <use id="Mask" fill="#046EAE" xlink:href="#path-1"></use>
                <g id="color/b2" mask="url(#mask-2)" fill="#056DAE">
                    <g transform="translate(-1.000000, -2.000000)" id="Color-/-B2">
                        <rect x="0" y="0" width="26" height="26"></rect>
                    </g>
                </g>
            </g>
        </g>
    </g>
</svg>